<?xml version="1.0" encoding="utf-8"?>
<!-- Generator: Adobe Illustrator 22.1.0, SVG Export Plug-In . SVG Version: 6.00 Build 0)  -->
<svg version="1.1" id="Layer_1" xmlns="http://www.w3.org/2000/svg" xmlns:xlink="http://www.w3.org/1999/xlink" x="0px" y="0px"
	 viewBox="0 0 467 467" style="enable-background:new 0 0 467 467;" xml:space="preserve">
<style type="text/css">
	.st0{fill:#FFFFFF;}
</style>
<g>
	<path class="st0" d="M126.6,135.4l10.3-18.9l18.8-10.3c0.7-0.4,1.1-1,1.3-1.7s0.1-1.5-0.3-2.1L145.5,84l0.4-21.5
		c0-0.7-0.3-1.5-0.8-2l0,0c-0.5-0.5-1.3-0.8-2-0.8l-21.5,0.5L103.3,49c-0.6-0.4-1.4-0.5-2.1-0.3s-1.3,0.7-1.7,1.3L89.2,68.9
		L70.3,79.2c-0.7,0.4-1.1,1-1.3,1.7c-0.2,0.7-0.1,1.5,0.3,2.1l11.2,18.4l-0.4,21.5c0,0.7,0.3,1.5,0.8,2l0,0c0.5,0.5,1.3,0.8,2,0.8
		l21.5-0.5l18.4,11.2c0.6,0.4,1.4,0.5,2.1,0.3C125.7,136.5,126.3,136.1,126.6,135.4z"/>
	<path class="st0" d="M145.5,187.4c-0.6-0.2-1.3-0.4-1.9-0.6c-0.3-0.1-0.6-0.1-1-0.2c-0.4-0.1-0.8-0.1-1.2-0.1c-0.3,0-0.5,0-0.8,0
		c-0.5,0-0.9,0-1.4,0c-0.2,0-0.5,0-0.7,0.1c-1,0.1-1.9,0.3-2.9,0.6c-0.4,0.1-0.7,0.2-1,0.4l0,0v-0.1c0.2-0.6,0.2-1.3,0-1.8
		c-0.3-0.8-0.9-1.5-1.7-1.8l-0.7-0.3c1.1-1.4,3-4.2,3.6-5.9c0.6-1.8-0.3-3.8-2.1-4.4l-8.3-3l-12.4-4.5c-1.8-0.6-3.8,0.3-4.4,2.1
		s-0.9,5.1-1,6.9l-0.5-0.2l0,0l-0.3-0.1c-1.5-0.5-3.1,0.2-3.6,1.7l0,0l0,0l-1.4,4.2c-13.1-1.5-18.3,3.9-20.8,10.8
		c0,0.1-9.3,25.7-9.3,25.7l0,0l0,0c0,0.1-0.1,0.2-0.1,0.2c0,0.1-0.1,0.3-0.1,0.4c-0.1,0.2-0.1,0.4-0.2,0.6c0,0,0,0,0,0.1
		c-1.4,5.6,0.8,11.4,5.3,14.6l0,0c0.2,0.1,0.3,0.2,0.5,0.4c0,0,0.1,0,0.1,0.1c0.2,0.1,0.3,0.2,0.5,0.3l0.1,0.1
		c0.2,0.1,0.3,0.2,0.5,0.3c0.1,0,0.1,0.1,0.2,0.1c0.2,0.1,0.3,0.2,0.5,0.2c0.1,0,0.1,0.1,0.2,0.1c0.2,0.1,0.4,0.2,0.7,0.3l18,6.6
		l13.3,4.8l0,0l4.7,1.7c1.3,0.5,2.7,0.7,4,0.8s2.7-0.1,4-0.4c3.3-0.8,6.3-2.9,8.2-5.9c0.2-0.3,0.3-0.5,0.5-0.8
		c0.3-0.6,0.6-1.2,0.9-1.9c0,0,0.5-1.3,1.2-3.4c2.4-6.6,7.6-21,8.1-22.2c5-0.4,9.4-3.2,11.5-7.7c0.1-0.3,0.3-0.6,0.4-0.9
		C157,198,153,190.1,145.5,187.4z M141.6,193.4c0.5,0.1,1,0.2,1.4,0.4c2.9,1,4.7,3.7,4.6,6.4c0,0.1,0,0.2,0,0.3
		c0,0.5-0.1,1.1-0.3,1.6c-0.6,1.5-1.7,2.7-3.1,3.4c-0.9-3.7-3-7.5-7-11.2c1-0.6,2.3-0.9,3.6-0.9C141,193.3,141.3,193.3,141.6,193.4z
		"/>
	<path class="st0" d="M144.2,280.8l-0.4,0.2c-2.5-3.5-7.1-5-11.2-3.3c-4.1,1.7-6.4,5.9-5.9,10.2l-15.4,6.2c-0.1,0-0.2,0.1-0.2,0.1
		l-22.4,9c-1.6,0.6-2.4,2.5-1.7,4.1l0.6,1.6c-1.6,0.5-3,1.8-4.2,3.7c-4.3,1.1-4.9-3.2-7.6-2.1c-1.6,0.6-3.2,5.2,0.6,9.5
		c1.7,1.9,3.6,2.9,5.4,3.3c0.5,1.8,1.5,3.3,2.9,4c-0.4,0.5-0.7,0.9-1.1,1.4l0,0c-19.6,15.5-16.3,43.5-5.3,48.9
		c10.9,5.4,30.7-5.5,32-10.6c1.1-4.3-0.1-8-1.8-11.5c3.2,0.5,6.7-0.2,10.3-1.6c8.7-3.5,14.6-9.6,9.8-22c-0.2-0.5-0.4-1-0.6-1.4
		l3.3-1.3c1.6-0.6,2.4-2.5,1.7-4.1l-1.7-4.4l24.7-9.9c0.6-0.3,1-1,0.7-1.7L146,281.6C145.6,280.9,144.8,280.5,144.2,280.8z
		 M121.9,332.8c0.2,0.3,0.3,0.6,0.4,0.9c2.8,7.1,0,11.1-4.7,13c-2.9,1.2-5.9,1-8.4-0.8c0.7,0.2,1.6,0.4,2.5,0.3
		c4.4-0.1,6.1-3.5,5.6-4.8c-1-2.4-4.1,0.3-5.8-4.5"/>
	<path class="st0" d="M361.6,135.4l10.3-18.9l18.8-10.3c0.7-0.4,1.1-1,1.3-1.7c0.2-0.7,0.1-1.5-0.3-2.1L380.5,84l0.4-21.5
		c0-0.7-0.3-1.5-0.8-2l0,0c-0.5-0.5-1.3-0.8-2-0.8l-21.5,0.5L338.3,49c-0.6-0.4-1.4-0.5-2.1-0.3s-1.3,0.7-1.7,1.3l-10.3,18.9
		l-18.8,10.3c-0.7,0.4-1.1,1-1.3,1.7c-0.2,0.7-0.1,1.5,0.3,2.1l11.2,18.4l-0.4,21.5c0,0.7,0.3,1.5,0.8,2l0,0c0.5,0.5,1.3,0.8,2,0.8
		l21.5-0.5l18.4,11.2c0.6,0.4,1.4,0.5,2.1,0.3C360.7,136.5,361.3,136.1,361.6,135.4z"/>
	<path class="st0" d="M380.5,187.4c-0.6-0.2-1.3-0.4-1.9-0.6c-0.3-0.1-0.6-0.1-1-0.2c-0.4-0.1-0.8-0.1-1.2-0.1c-0.3,0-0.5,0-0.8,0
		c-0.5,0-0.9,0-1.4,0c-0.2,0-0.5,0-0.7,0.1c-1,0.1-1.9,0.3-2.9,0.6c-0.4,0.1-0.7,0.2-1,0.4l0,0v-0.1c0.2-0.6,0.2-1.3,0-1.8
		c-0.3-0.8-0.9-1.5-1.7-1.8l-0.7-0.3c1.1-1.4,3-4.2,3.6-5.9c0.6-1.8-0.3-3.8-2.1-4.4l-8.3-3l-12.4-4.5c-1.8-0.6-3.8,0.3-4.4,2.1
		s-0.9,5.1-1,6.9l-0.5-0.2l0,0l-0.3-0.1c-1.5-0.5-3.1,0.2-3.6,1.7l0,0l0,0l-1.4,4.2c-13.1-1.5-18.3,3.9-20.8,10.8
		c0,0.1-9.3,25.7-9.3,25.7l0,0l0,0c0,0.1-0.1,0.2-0.1,0.2c0,0.1-0.1,0.3-0.1,0.4c-0.1,0.2-0.1,0.4-0.2,0.6c0,0,0,0,0,0.1
		c-1.4,5.6,0.8,11.4,5.3,14.6l0,0c0.2,0.1,0.3,0.2,0.5,0.4c0,0,0.1,0,0.1,0.1c0.2,0.1,0.3,0.2,0.5,0.3l0.1,0.1
		c0.2,0.1,0.3,0.2,0.5,0.3c0.1,0,0.1,0.1,0.2,0.1c0.2,0.1,0.3,0.2,0.5,0.2c0.1,0,0.1,0.1,0.2,0.1c0.2,0.1,0.4,0.2,0.7,0.3l18,6.6
		l13.3,4.8l0,0l4.7,1.7c1.3,0.5,2.7,0.7,4,0.8s2.7-0.1,4-0.4c3.3-0.8,6.3-2.9,8.2-5.9c0.2-0.3,0.3-0.5,0.5-0.8
		c0.3-0.6,0.6-1.2,0.9-1.9c0,0,0.5-1.3,1.2-3.4c2.4-6.6,7.6-21,8.1-22.2c5-0.4,9.4-3.2,11.5-7.7c0.1-0.3,0.3-0.6,0.4-0.9
		C392,198,388,190.1,380.5,187.4z M376.6,193.4c0.5,0.1,1,0.2,1.4,0.4c2.9,1,4.7,3.7,4.6,6.4c0,0.1,0,0.2,0,0.3
		c0,0.5-0.1,1.1-0.3,1.6c-0.6,1.5-1.7,2.7-3.1,3.4c-0.9-3.7-3-7.5-7-11.2c1-0.6,2.3-0.9,3.6-0.9C376,193.3,376.3,193.3,376.6,193.4z
		"/>
	<path class="st0" d="M379.2,280.8l-0.4,0.2c-2.5-3.5-7.1-5-11.2-3.3s-6.4,5.9-5.9,10.2l-15.4,6.2c-0.1,0-0.2,0.1-0.2,0.1l-22.4,9
		c-1.6,0.6-2.4,2.5-1.7,4.1l0.6,1.6c-1.6,0.5-3,1.8-4.2,3.7c-4.3,1.1-4.9-3.2-7.6-2.1c-1.6,0.6-3.2,5.2,0.6,9.5
		c1.7,1.9,3.6,2.9,5.4,3.3c0.5,1.8,1.5,3.3,2.9,4c-0.4,0.5-0.7,0.9-1.1,1.4l0,0c-19.6,15.5-16.3,43.5-5.3,48.9
		c10.9,5.4,30.7-5.5,32-10.6c1.1-4.3-0.1-8-1.8-11.5c3.2,0.5,6.7-0.2,10.3-1.6c8.7-3.5,14.6-9.6,9.8-22c-0.2-0.5-0.4-1-0.6-1.4
		l3.3-1.3c1.6-0.6,2.4-2.5,1.7-4.1l-1.7-4.4l24.7-9.9c0.6-0.3,1-1,0.7-1.7L381,281.6C380.6,280.9,379.8,280.5,379.2,280.8z
		 M356.9,332.8c0.2,0.3,0.3,0.6,0.4,0.9c2.8,7.1,0,11.1-4.7,13c-2.9,1.2-5.9,1-8.4-0.8c0.7,0.2,1.6,0.4,2.5,0.3
		c4.4-0.1,6.1-3.5,5.6-4.8c-1-2.4-4.1,0.3-5.8-4.5"/>
	<path class="st0" d="M262.6,10.5l-0.4,0.2c-2.5-3.5-7.1-5-11.2-3.3s-6.4,5.9-5.9,10.2l-15.4,6.2c-0.1,0-0.2,0.1-0.2,0.1l-22.4,9
		c-1.6,0.6-2.4,2.5-1.7,4.1l0.6,1.6c-1.6,0.5-3,1.8-4.2,3.7c-4.3,1.1-4.9-3.2-7.6-2.1c-1.6,0.6-3.2,5.2,0.6,9.5
		c1.7,1.9,3.6,2.9,5.4,3.3c0.5,1.8,1.5,3.3,2.9,4c-0.4,0.5-0.7,0.9-1.1,1.4l0,0c-19.6,15.5-16.3,43.5-5.3,48.9
		c10.9,5.4,30.7-5.5,32-10.6c1.1-4.3-0.1-8-1.8-11.5c3.2,0.5,6.7-0.2,10.3-1.6c8.7-3.5,14.6-9.6,9.8-22c-0.2-0.5-0.4-1-0.6-1.4
		l3.3-1.3c1.6-0.6,2.4-2.5,1.7-4.1l-1.7-4.4l24.7-9.9c0.6-0.3,1-1,0.7-1.7l-10.7-27.5C264,10.5,263.3,10.2,262.6,10.5z M240.4,62.5
		c0.2,0.3,0.3,0.6,0.4,0.9c2.8,7.1,0,11.1-4.7,13c-2.9,1.2-5.9,1-8.4-0.8c0.7,0.2,1.6,0.4,2.5,0.3c4.4-0.1,6.1-3.5,5.6-4.8
		c-1-2.4-4.1,0.3-5.8-4.5"/>
	<path class="st0" d="M258.3,146.8c-15.3-15.3-40.7-14.7-54.4-1.1c-9,9-10.6,21.4-6.3,33.2l-3.2,3.2c-1.7,1.7-1.7,4.4,0,6.1
		l22.4,22.4c1.7,1.7,4.4,1.7,6.1,0l3.2-3.2c11.8,4.3,24.2,2.7,33.2-6.3C273.1,187.5,273.7,162.1,258.3,146.8z M236.7,172.6h7.1
		c1.5,0,2.7,1.2,2.7,2.7s-1.2,2.7-2.7,2.7h-7.1c-0.8,0-1.4-0.3-1.9-0.8s-0.8-1.2-0.8-1.9C234,173.8,235.2,172.6,236.7,172.6z
		 M230,158.8c1.5,0,2.7,1.2,2.7,2.7v7.1c0,1.5-1.2,2.7-2.7,2.7c-0.8,0-1.4-0.3-1.9-0.8s-0.8-1.2-0.8-1.9v-7.1
		C227.3,160,228.5,158.8,230,158.8z M205.4,175.3c-4.5-4.5-4.3-11.8,0.3-16.4c4.6-4.6,12-4.8,16.4-0.3s4.3,11.8-0.3,16.4
		C217.2,179.6,209.8,179.7,205.4,175.3z M212,184.8l11.3-2.6l-2.9,11C220.3,193.1,212,184.8,212,184.8z M230.5,200.4
		c-4.5-4.5-4.3-11.8,0.3-16.4s12-4.8,16.4-0.3c4.5,4.5,4.3,11.8-0.3,16.4C242.3,204.7,234.9,204.8,230.5,200.4z"/>
	<path class="st0" d="M245.1,333.4l10.3-18.9l18.8-10.3c0.7-0.4,1.1-1,1.3-1.7c0.2-0.7,0.1-1.5-0.3-2.1L264,282l0.4-21.5
		c0-0.7-0.3-1.5-0.8-2l0,0c-0.5-0.5-1.3-0.8-2-0.8l-21.5,0.5L221.7,247c-0.6-0.4-1.4-0.5-2.1-0.3c-0.7,0.2-1.3,0.7-1.7,1.3
		l-10.3,18.9l-18.8,10.3c-0.7,0.4-1.1,1-1.3,1.7s-0.1,1.5,0.3,2.1l11.2,18.4l-0.4,21.5c0,0.7,0.3,1.5,0.8,2l0,0
		c0.5,0.5,1.3,0.8,2,0.8l21.5-0.5l18.4,11.2c0.6,0.4,1.4,0.5,2.1,0.3C244.1,334.5,244.7,334,245.1,333.4z"/>
	<path class="st0" d="M264,391.8c-0.6-0.2-1.3-0.4-1.9-0.6c-0.3-0.1-0.6-0.1-1-0.2s-0.8-0.1-1.2-0.1c-0.3,0-0.5,0-0.8,0
		c-0.5,0-0.9,0-1.4,0c-0.2,0-0.5,0-0.7,0.1c-1,0.1-1.9,0.3-2.9,0.6c-0.4,0.1-0.7,0.2-1,0.4l0,0v-0.1c0.2-0.6,0.2-1.3,0-1.8
		c-0.3-0.8-0.9-1.5-1.7-1.8l-0.7-0.3c1.1-1.4,3-4.2,3.6-5.9c0.6-1.8-0.3-3.8-2.1-4.4l-8.3-3l-12.4-4.5c-1.8-0.6-3.8,0.3-4.4,2.1
		c-0.6,1.8-0.9,5.1-1,6.9l-0.5-0.2l0,0l-0.3-0.1c-1.5-0.5-3.1,0.2-3.6,1.7l0,0l0,0l-1.4,4.2c-13.1-1.5-18.3,3.9-20.8,10.8
		c0,0.1-9.3,25.7-9.3,25.7l0,0l0,0c0,0.1-0.1,0.2-0.1,0.2c0,0.1-0.1,0.3-0.1,0.4c-0.1,0.2-0.1,0.4-0.2,0.6c0,0,0,0,0,0.1
		c-1.4,5.6,0.8,11.4,5.3,14.6l0,0c0.2,0.1,0.3,0.2,0.5,0.4c0,0,0.1,0,0.1,0.1c0.2,0.1,0.3,0.2,0.5,0.3l0.1,0.1
		c0.2,0.1,0.3,0.2,0.5,0.3c0.1,0,0.1,0.1,0.2,0.1c0.2,0.1,0.3,0.2,0.5,0.2c0.1,0,0.1,0.1,0.2,0.1c0.2,0.1,0.4,0.2,0.7,0.3l18,6.6
		l13.3,4.8l0,0l4.7,1.7c1.3,0.5,2.7,0.7,4,0.8c1.3,0.1,2.7-0.1,4-0.4c3.3-0.8,6.3-2.9,8.2-5.9c0.2-0.3,0.3-0.5,0.5-0.8
		c0.3-0.6,0.6-1.2,0.9-1.9c0,0,0.5-1.3,1.2-3.4c2.4-6.6,7.6-21,8.1-22.2c5-0.4,9.4-3.2,11.5-7.7c0.1-0.3,0.3-0.6,0.4-0.9
		C275.5,402.4,271.5,394.6,264,391.8z M260.1,397.8c0.5,0.1,1,0.2,1.4,0.4c2.9,1,4.7,3.7,4.6,6.4c0,0.1,0,0.2,0,0.3
		c0,0.5-0.1,1.1-0.3,1.6c-0.6,1.5-1.7,2.7-3.1,3.4c-0.9-3.7-3-7.5-7-11.2c1-0.6,2.3-0.9,3.6-0.9
		C259.5,397.7,259.8,397.8,260.1,397.8z"/>
	<g>
		<path class="st0" d="M0.1,22.2v43.1l9.3-3.8c0.2,0.3,0.3,0.6,0.4,0.9c2.8,7.1,0,11.1-4.7,13c-1.7,0.7-3.4,0.9-5,0.6v8
			c2-0.2,4.1-0.8,6.1-1.6c8.7-3.5,14.6-9.6,9.8-22c-0.2-0.5-0.4-1-0.6-1.4l3.3-1.3c1.6-0.6,2.4-2.5,1.7-4.1l-1.7-4.4l24.7-9.9
			c0.6-0.3,1-1,0.7-1.7L33.3,10.2c-0.3-0.7-1-1-1.6-0.7l-0.4,0.2c-2.5-3.5-7.1-5-11.2-3.3s-6.4,5.9-5.9,10.2L0.1,22.2z"/>
		<path class="st0" d="M4.8,70.2c-0.8-2-3-0.5-4.7-2.6v7.3C3.8,74.4,5.3,71.4,4.8,70.2z"/>
		<path class="st0" d="M44.2,299.3L33,281l0.4-21.5c0-0.7-0.3-1.5-0.8-2l0,0c-0.5-0.5-1.3-0.8-2-0.8l-21.5,0.5l-9-5.5v75.5l10.2,6.2
			c0.6,0.4,1.4,0.5,2.1,0.3s1.3-0.7,1.7-1.3l10.3-18.9l18.8-10.3c0.7-0.4,1.1-1,1.3-1.7C44.7,300.7,44.6,300,44.2,299.3z"/>
		<path class="st0" d="M33,398.3c-0.6-0.2-1.3-0.4-1.9-0.6c-0.3-0.1-0.6-0.1-1-0.2s-0.8-0.1-1.2-0.1c-0.3,0-0.5,0-0.8,0
			c-0.5,0-0.9,0-1.4,0c-0.2,0-0.5,0-0.7,0.1c-1,0.1-1.9,0.3-2.9,0.6c-0.4,0.1-0.7,0.2-1,0.4l0,0v-0.1c0.2-0.6,0.2-1.3,0-1.8
			c-0.3-0.8-0.9-1.5-1.7-1.8l-0.7-0.3c1.1-1.4,3-4.2,3.6-5.9c0.6-1.8-0.3-3.8-2.1-4.4l-8.3-3l-12.4-4.5c-0.2-0.1-0.3-0.1-0.5-0.1
			v80.7l3.2,1.1c1.3,0.5,2.7,0.7,4,0.8c1.3,0.1,2.7-0.1,4-0.4c3.3-0.8,6.3-2.9,8.2-5.9c0.2-0.3,0.3-0.5,0.5-0.8
			c0.3-0.6,0.6-1.2,0.9-1.9c0,0,0.5-1.3,1.2-3.4c2.4-6.6,7.6-21,8.1-22.2c5-0.4,9.4-3.2,11.5-7.7c0.1-0.3,0.3-0.6,0.4-0.9
			C44.5,408.9,40.5,401.1,33,398.3z M35,411.4c0,0.5-0.1,1.1-0.3,1.6c-0.6,1.5-1.7,2.7-3.1,3.4c-0.9-3.7-3-7.5-7-11.2
			c1-0.6,2.3-0.9,3.6-0.9c0.3,0,0.6,0,0.9,0.1c0.5,0.1,1,0.2,1.4,0.4c2.9,1,4.7,3.7,4.6,6.4C35.1,411.2,35,411.3,35,411.4z"/>
		<path class="st0" d="M28.4,200.1c13.7-13.7,14.3-39.1-1.1-54.4c-7.5-7.5-17.5-11.2-27.3-11.4V158c1,0.4,1.7,1.4,1.7,2.5v7.1
			c0,1.1-0.7,2.1-1.7,2.5v12.5c4.6-4.4,11.8-4.4,16.2-0.1c4.5,4.5,4.3,11.8-0.3,16.4c-4.4,4.4-11.3,4.7-15.8,0.9v8
			C10.3,210.2,20.6,207.9,28.4,200.1z M12.8,177H5.7c-0.8,0-1.4-0.3-1.9-0.8S3,175,3,174.3c0-1.5,1.2-2.7,2.7-2.7h7.1
			c1.5,0,2.7,1.2,2.7,2.7C15.6,175.8,14.3,177,12.8,177z"/>
	</g>
	<g>
		<path class="st0" d="M430.5,187.2l22.4,22.4c1.7,1.7,4.4,1.7,6.1,0l3.2-3.2c1.6,0.6,3.2,1,4.9,1.4v-8c-0.2-0.2-0.4-0.4-0.6-0.5
			c-4.5-4.5-4.3-11.8,0.3-16.4c0.1-0.1,0.2-0.2,0.3-0.3v-12.5c-0.3,0.1-0.7,0.2-1,0.2c-0.8,0-1.4-0.3-1.9-0.8s-0.8-1.2-0.8-1.9v-7.1
			c0-1.5,1.2-2.7,2.7-2.7c0.4,0,0.7,0.1,1,0.2v-23.6c-10.2-0.2-20.1,3.4-27.1,10.3c-9,9-10.6,21.4-6.3,33.2l-3.2,3.2
			C428.8,182.8,428.8,185.5,430.5,187.2z M456.3,192.1c0,0-8.4-8.3-8.3-8.3l11.3-2.6L456.3,192.1z M441.7,157.8
			c4.6-4.6,12-4.8,16.4-0.3c4.5,4.5,4.3,11.8-0.3,16.4c-4.6,4.6-12,4.8-16.4,0.3C436.9,169.8,437,162.4,441.7,157.8z"/>
		<path class="st0" d="M432.7,106.1c10.9,5.4,30.7-5.5,32-10.6c1.1-4.3-0.1-8-1.8-11.5c1.3,0.2,2.7,0.2,4.1,0v-8
			c-1.2-0.2-2.3-0.7-3.4-1.5c0.7,0.2,1.6,0.4,2.5,0.3c0.3,0,0.6,0,0.9-0.1v-7.3c-0.4-0.5-0.7-1.1-1-2l1-0.4V22.2l-1.3,0.5
			c-0.1,0-0.2,0.1-0.2,0.1l-22.4,9c-1.6,0.6-2.4,2.5-1.7,4.1l0.6,1.6c-1.6,0.5-3,1.8-4.2,3.7c-4.3,1.1-4.9-3.2-7.6-2.1
			c-1.6,0.6-3.2,5.2,0.6,9.5c1.7,1.9,3.6,2.9,5.4,3.3c0.5,1.8,1.5,3.3,2.9,4c-0.4,0.5-0.7,0.9-1.1,1.4
			C418.4,72.7,421.8,100.7,432.7,106.1z"/>
		<path class="st0" d="M467.1,376.5c-1.6-0.3-3.3,0.6-3.9,2.2c-0.6,1.8-0.9,5.1-1,6.9l-0.5-0.2l0,0l-0.3-0.1
			c-1.5-0.5-3.1,0.2-3.6,1.7l0,0l0,0l-1.4,4.2c-13.1-1.5-18.3,3.9-20.8,10.8c0,0.1-9.3,25.7-9.3,25.7l0,0l0,0c0,0.1-0.1,0.2-0.1,0.2
			c0,0.1-0.1,0.3-0.1,0.4c-0.1,0.2-0.1,0.4-0.2,0.6c0,0,0,0,0,0.1c-1.4,5.6,0.8,11.4,5.3,14.6l0,0c0.2,0.1,0.3,0.2,0.5,0.4
			c0,0,0.1,0,0.1,0.1c0.2,0.1,0.3,0.2,0.5,0.3l0.1,0.1c0.2,0.1,0.3,0.2,0.5,0.3c0.1,0,0.1,0.1,0.2,0.1c0.2,0.1,0.3,0.2,0.5,0.2
			c0.1,0,0.1,0.1,0.2,0.1c0.2,0.1,0.4,0.2,0.7,0.3l18,6.6l13.3,4.8l1.6,0.6v-81H467.1z"/>
		<path class="st0" d="M434.5,319.9c0,0.7,0.3,1.5,0.8,2l0,0c0.5,0.5,1.3,0.8,2,0.8l21.5-0.5l8.2,5v-75.5l-9.4-5.7
			c-0.6-0.4-1.4-0.5-2.1-0.3s-1.3,0.7-1.7,1.3l-10.3,18.9l-18.8,10.3c-0.7,0.4-1.1,1-1.3,1.7c-0.2,0.7-0.1,1.5,0.3,2.1l11.2,18.4
			L434.5,319.9z"/>
	</g>
	<path class="st0" d="M132-0.1c-0.1,2.9-1.3,5.9-3.6,8.2c-4.6,4.6-12,4.8-16.4,0.3c-2.3-2.3-3.4-5.4-3.2-8.5h-6.6l-0.3,1.2
		c0,0-0.5-0.5-1.2-1.2h-21l18.8,18.8c1.7,1.7,4.4,1.7,6.1,0l3.2-3.2c11.8,4.3,24.2,2.7,33.2-6.3c2.7-2.7,4.9-5.8,6.5-9.3
		C147.5-0.1,132-0.1,132-0.1z"/>
	<path class="st0" d="M367-0.1c-0.1,2.9-1.3,5.9-3.6,8.2c-4.6,4.6-12,4.8-16.4,0.3c-2.3-2.3-3.4-5.4-3.2-8.5h-6.6l-0.3,1.2
		c0,0-0.5-0.5-1.2-1.2h-21l18.8,18.8c1.7,1.7,4.4,1.7,6.1,0l3.2-3.2c11.8,4.3,24.2,2.7,33.2-6.3c2.7-2.7,4.9-5.8,6.5-9.3
		C382.5-0.1,367-0.1,367-0.1z"/>
	<path class="st0" d="M79.7,466.9h21c-2.3-2.3-7.1-7.1-7.1-7.1l11.3-2.6l-2.6,9.7h6.6c0.1-2.9,1.3-5.7,3.5-7.9
		c4.6-4.6,12-4.8,16.4-0.3c2.3,2.3,3.3,5.3,3.2,8.3h15.4c6.8-14,4.7-32.8-7.6-45.1c-15.3-15.3-40.7-14.7-54.4-1.1
		c-9,9-10.6,21.4-6.3,33.2l-3.2,3.2c-1.7,1.7-1.7,4.4,0,6.1L79.7,466.9z M118.3,447.6h7.1c1.5,0,2.7,1.2,2.7,2.7s-1.2,2.7-2.7,2.7
		h-7.1c-0.8,0-1.4-0.3-1.9-0.8s-0.8-1.2-0.8-1.9C115.6,448.9,116.8,447.7,118.3,447.6z M108.9,436.6c0-1.5,1.2-2.7,2.7-2.7
		s2.7,1.2,2.7,2.7v7.1c0,1.5-1.2,2.7-2.7,2.7c-0.8,0-1.4-0.3-1.9-0.8s-0.8-1.2-0.8-1.9L108.9,436.6z M87.2,433.9
		c4.6-4.6,12-4.8,16.4-0.3c4.5,4.5,4.3,11.8-0.3,16.4c-4.6,4.6-12,4.8-16.4,0.3C82.5,445.9,82.6,438.5,87.2,433.9z"/>
	<path class="st0" d="M314.7,466.9h21c-2.3-2.3-7.1-7.1-7.1-7.1l11.3-2.6l-2.6,9.7h6.6c0.1-2.9,1.3-5.7,3.5-7.9
		c4.6-4.6,12-4.8,16.4-0.3c2.3,2.3,3.3,5.3,3.2,8.3h15.4c6.8-14,4.7-32.8-7.6-45.1c-15.3-15.3-40.7-14.7-54.4-1.1
		c-9,9-10.6,21.4-6.3,33.2l-3.2,3.2c-1.7,1.7-1.7,4.4,0,6.1L314.7,466.9z M353.3,447.6h7.1c1.5,0,2.7,1.2,2.7,2.7s-1.2,2.7-2.7,2.7
		h-7.1c-0.8,0-1.4-0.3-1.9-0.8s-0.8-1.2-0.8-1.9C350.6,448.9,351.8,447.7,353.3,447.6z M343.9,436.6c0-1.5,1.2-2.7,2.7-2.7
		s2.7,1.2,2.7,2.7v7.1c0,1.5-1.2,2.7-2.7,2.7c-0.8,0-1.4-0.3-1.9-0.8s-0.8-1.2-0.8-1.9L343.9,436.6z M322.2,433.9
		c4.6-4.6,12-4.8,16.4-0.3c4.5,4.5,4.3,11.8-0.3,16.4c-4.6,4.6-12,4.8-16.4,0.3C317.5,445.9,317.6,438.5,322.2,433.9z"/>
</g>
</svg>
